<?xml version="1.0" encoding="utf-8" standalone="no"?>
<!DOCTYPE svg PUBLIC "-//W3C//DTD SVG 1.1//EN"
  "http://www.w3.org/Graphics/SVG/1.1/DTD/svg11.dtd">
<svg xmlns:xlink="http://www.w3.org/1999/xlink" width="964.8pt" height="316.8pt" viewBox="0 0 964.8 316.8" xmlns="http://www.w3.org/2000/svg" version="1.1">
 <metadata>
  <rdf:RDF xmlns:dc="http://purl.org/dc/elements/1.1/" xmlns:cc="http://creativecommons.org/ns#" xmlns:rdf="http://www.w3.org/1999/02/22-rdf-syntax-ns#">
   <cc:Work>
    <dc:type rdf:resource="http://purl.org/dc/dcmitype/StillImage"/>
    <dc:date>2025-10-09T04:49:23.286767</dc:date>
    <dc:format>image/svg+xml</dc:format>
    <dc:creator>
     <cc:Agent>
      <dc:title>Matplotlib v3.10.6, https://matplotlib.org/</dc:title>
     </cc:Agent>
    </dc:creator>
   </cc:Work>
  </rdf:RDF>
 </metadata>
 <defs>
  <style type="text/css">*{stroke-linejoin: round; stroke-linecap: butt}</style>
 </defs>
 <g id="figure_1">
  <g id="patch_1">
   <path d="M 0 316.8 
L 964.8 316.8 
L 964.8 0 
L 0 0 
z
" style="fill: #ffffff"/>
  </g>
  <g id="axes_1">
   <g id="patch_2">
    <path d="M 868.088855 90.691942 
Q 836.904322 68.7719 804.394116 53.065926 
" clip-path="url(#p367c4ef480)" style="fill: none; stroke: #4d4d4d; stroke-width: 1.8; stroke-linecap: round"/>
    <path d="M 808.76484 58.731327 
L 804.394116 53.065926 
L 811.548872 52.968588 
z
" clip-path="url(#p367c4ef480)" style="fill: #4d4d4d; stroke: #4d4d4d; stroke-width: 1.8; stroke-linecap: round"/>
   </g>
   <g id="patch_3">
    <path d="M 786.238852 46.878018 
Q 714.999905 33.737853 644.572295 33.440556 
" clip-path="url(#p367c4ef480)" style="fill: none; stroke: #4d4d4d; stroke-width: 1.8; stroke-linecap: round"/>
    <path d="M 650.95873 36.667544 
L 644.572295 33.440556 
L 650.985746 30.267601 
z
" clip-path="url(#p367c4ef480)" style="fill: #4d4d4d; stroke: #4d4d4d; stroke-width: 1.8; stroke-linecap: round"/>
   </g>
   <g id="patch_4">
    <path d="M 625.243645 33.371478 
Q 558.120856 33.210078 493.996798 44.500879 
" clip-path="url(#p367c4ef480)" style="fill: none; stroke: #4d4d4d; stroke-width: 1.8; stroke-linecap: round"/>
    <path d="M 500.854748 46.542576 
L 493.996798 44.500879 
L 499.744925 40.239537 
z
" clip-path="url(#p367c4ef480)" style="fill: #4d4d4d; stroke: #4d4d4d; stroke-width: 1.8; stroke-linecap: round"/>
   </g>
   <g id="patch_5">
    <path d="M 475.269533 49.107955 
Q 417.434589 68.546617 365.625969 96.779169 
" clip-path="url(#p367c4ef480)" style="fill: none; stroke: #4d4d4d; stroke-width: 1.8; stroke-linecap: round"/>
    <path d="M 372.776928 96.526622 
L 365.625969 96.779169 
L 369.714507 90.906873 
z
" clip-path="url(#p367c4ef480)" style="fill: #4d4d4d; stroke: #4d4d4d; stroke-width: 1.8; stroke-linecap: round"/>
   </g>
   <g id="patch_6">
    <path d="M 348.626701 105.996161 
Q 296.822325 133.923052 252.211298 169.145693 
" clip-path="url(#p367c4ef480)" style="fill: none; stroke: #4d4d4d; stroke-width: 1.8; stroke-linecap: round"/>
    <path d="M 259.217341 167.691264 
L 252.211298 169.145693 
L 255.251381 162.668201 
z
" clip-path="url(#p367c4ef480)" style="fill: #4d4d4d; stroke: #4d4d4d; stroke-width: 1.8; stroke-linecap: round"/>
   </g>
   <g id="patch_7">
    <path d="M 235.746477 178.806112 
Q 203.387657 191.13557 175.143712 207.447018 
" clip-path="url(#p367c4ef480)" style="fill: none; stroke: #4d4d4d; stroke-width: 1.8; stroke-linecap: round"/>
    <path d="M 182.28622 207.017389 
L 175.143712 207.447018 
L 179.085514 201.475235 
z
" clip-path="url(#p367c4ef480)" style="fill: #4d4d4d; stroke: #4d4d4d; stroke-width: 1.8; stroke-linecap: round"/>
   </g>
   <g id="patch_8">
    <path d="M 160.785465 205.908344 
Q 153.658034 196.728796 146.935821 189.86224 
" clip-path="url(#p367c4ef480)" style="fill: none; stroke: #4d4d4d; stroke-width: 1.8; stroke-linecap: round"/>
    <path d="M 149.126333 196.674116 
L 146.935821 189.86224 
L 153.699629 192.196956 
z
" clip-path="url(#p367c4ef480)" style="fill: #4d4d4d; stroke: #4d4d4d; stroke-width: 1.8; stroke-linecap: round"/>
   </g>
   <g id="patch_9">
    <path d="M 134.820437 189.754691 
Q 110.171612 230.731483 93.496367 273.395062 
" clip-path="url(#p367c4ef480)" style="fill: none; stroke: #4d4d4d; stroke-width: 1.8; stroke-linecap: round"/>
    <path d="M 98.806628 268.599113 
L 93.496367 273.395062 
L 92.845765 266.269284 
z
" clip-path="url(#p367c4ef480)" style="fill: #4d4d4d; stroke: #4d4d4d; stroke-width: 1.8; stroke-linecap: round"/>
   </g>
   <g id="text_1">
    <g id="patch_10">
     <path d="M 825.977198 73.21385 
L 838.338241 80.478969 
Q 840.148692 81.543049 841.212772 79.732598 
L 844.64554 73.892008 
Q 845.70962 72.081557 843.899169 71.017476 
L 831.538126 63.752357 
Q 829.727675 62.688277 828.663595 64.498728 
L 825.230827 70.339318 
Q 824.166747 72.149769 825.977198 73.21385 
z
" clip-path="url(#p367c4ef480)" style="fill: #ffffff; stroke: #ffffff; stroke-linejoin: miter"/>
    </g>
    <g clip-path="url(#p367c4ef480)">
     <!-- CFG -->
     <g transform="translate(827.77893 70.148341) rotate(-329.555405) scale(0.07 -0.07)">
      <defs>
       <path id="DejaVuSans-43" d="M 4122 4306 
L 4122 3641 
Q 3803 3938 3442 4084 
Q 3081 4231 2675 4231 
Q 1875 4231 1450 3742 
Q 1025 3253 1025 2328 
Q 1025 1406 1450 917 
Q 1875 428 2675 428 
Q 3081 428 3442 575 
Q 3803 722 4122 1019 
L 4122 359 
Q 3791 134 3420 21 
Q 3050 -91 2638 -91 
Q 1578 -91 968 557 
Q 359 1206 359 2328 
Q 359 3453 968 4101 
Q 1578 4750 2638 4750 
Q 3056 4750 3426 4639 
Q 3797 4528 4122 4306 
z
" transform="scale(0.015625)"/>
       <path id="DejaVuSans-46" d="M 628 4666 
L 3309 4666 
L 3309 4134 
L 1259 4134 
L 1259 2759 
L 3109 2759 
L 3109 2228 
L 1259 2228 
L 1259 0 
L 628 0 
L 628 4666 
z
" transform="scale(0.015625)"/>
       <path id="DejaVuSans-47" d="M 3809 666 
L 3809 1919 
L 2778 1919 
L 2778 2438 
L 4434 2438 
L 4434 434 
Q 4069 175 3628 42 
Q 3188 -91 2688 -91 
Q 1594 -91 976 548 
Q 359 1188 359 2328 
Q 359 3472 976 4111 
Q 1594 4750 2688 4750 
Q 3144 4750 3555 4637 
Q 3966 4525 4313 4306 
L 4313 3634 
Q 3963 3931 3569 4081 
Q 3175 4231 2741 4231 
Q 1884 4231 1454 3753 
Q 1025 3275 1025 2328 
Q 1025 1384 1454 906 
Q 1884 428 2741 428 
Q 3075 428 3337 486 
Q 3600 544 3809 666 
z
" transform="scale(0.015625)"/>
      </defs>
      <use xlink:href="#DejaVuSans-43"/>
      <use xlink:href="#DejaVuSans-46" transform="translate(69.824219 0)"/>
      <use xlink:href="#DejaVuSans-47" transform="translate(127.34375 0)"/>
     </g>
    </g>
   </g>
   <g id="text_2">
    <g id="patch_11">
     <path d="M 706.676698 45.763322 
L 720.952289 47.099305 
Q 723.043153 47.294979 723.238827 45.204115 
L 723.870079 38.458901 
Q 724.065752 36.368037 721.974888 36.172363 
L 707.699297 34.83638 
Q 705.608434 34.640707 705.41276 36.73157 
L 704.781508 43.476784 
Q 704.585834 45.567648 706.676698 45.763322 
z
" clip-path="url(#p367c4ef480)" style="fill: #ffffff; stroke: #ffffff; stroke-linejoin: miter"/>
    </g>
    <g clip-path="url(#p367c4ef480)">
     <!-- CFG -->
     <g transform="translate(707.008019 42.22301) rotate(-354.65354) scale(0.07 -0.07)">
      <use xlink:href="#DejaVuSans-43"/>
      <use xlink:href="#DejaVuSans-46" transform="translate(69.824219 0)"/>
      <use xlink:href="#DejaVuSans-47" transform="translate(127.34375 0)"/>
     </g>
    </g>
   </g>
   <g id="text_3">
    <g id="patch_12">
     <path d="M 552.029683 46.002857 
L 566.31473 44.772094 
Q 568.406979 44.591831 568.226716 42.499582 
L 567.645181 35.7499 
Q 567.464918 33.657651 565.37267 33.837914 
L 551.087622 35.068677 
Q 548.995374 35.24894 549.175636 37.341189 
L 549.757172 44.090871 
Q 549.937434 46.18312 552.029683 46.002857 
z
" clip-path="url(#p367c4ef480)" style="fill: #ffffff; stroke: #ffffff; stroke-linejoin: miter"/>
    </g>
    <g clip-path="url(#p367c4ef480)">
     <!-- CFG -->
     <g transform="translate(551.724457 42.4602) rotate(-4.924296) scale(0.07 -0.07)">
      <use xlink:href="#DejaVuSans-43"/>
      <use xlink:href="#DejaVuSans-46" transform="translate(69.824219 0)"/>
      <use xlink:href="#DejaVuSans-47" transform="translate(127.34375 0)"/>
     </g>
    </g>
   </g>
   <g id="text_4">
    <g id="patch_13">
     <path d="M 415.510364 82.064517 
L 428.650852 76.328235 
Q 430.575464 75.488074 429.735303 73.563463 
L 427.024911 67.354585 
Q 426.18475 65.429973 424.260139 66.270133 
L 411.119651 72.006416 
Q 409.195039 72.846576 410.0352 74.771188 
L 412.745592 80.980066 
Q 413.585753 82.904678 415.510364 82.064517 
z
" clip-path="url(#p367c4ef480)" style="fill: #ffffff; stroke: #ffffff; stroke-linejoin: miter"/>
    </g>
    <g clip-path="url(#p367c4ef480)">
     <!-- CFG -->
     <g transform="translate(414.08778 78.805709) rotate(-23.582953) scale(0.07 -0.07)">
      <use xlink:href="#DejaVuSans-43"/>
      <use xlink:href="#DejaVuSans-46" transform="translate(69.824219 0)"/>
      <use xlink:href="#DejaVuSans-47" transform="translate(127.34375 0)"/>
     </g>
    </g>
   </g>
   <g id="text_5">
    <g id="patch_14">
     <path d="M 297.09628 147.390949 
L 309.078599 139.516854 
Q 310.833581 138.36358 309.680307 136.608599 
L 305.959799 130.946955 
Q 304.806525 129.191974 303.051544 130.345247 
L 291.069224 138.219342 
Q 289.314243 139.372616 290.467516 141.127597 
L 294.188025 146.789241 
Q 295.341298 148.544222 297.09628 147.390949 
z
" clip-path="url(#p367c4ef480)" style="fill: #ffffff; stroke: #ffffff; stroke-linejoin: miter"/>
    </g>
    <g clip-path="url(#p367c4ef480)">
     <!-- CFG -->
     <g transform="translate(295.143523 144.419363) rotate(-33.31063) scale(0.07 -0.07)">
      <use xlink:href="#DejaVuSans-43"/>
      <use xlink:href="#DejaVuSans-46" transform="translate(69.824219 0)"/>
      <use xlink:href="#DejaVuSans-47" transform="translate(127.34375 0)"/>
     </g>
    </g>
   </g>
   <g id="text_6">
    <g id="patch_15">
     <path d="M 200.787926 202.365603 
L 213.736424 196.208189 
Q 215.632917 195.306348 214.731075 193.409856 
L 211.821698 187.291693 
Q 210.919857 185.395201 209.023365 186.297042 
L 196.074867 192.454456 
Q 194.178375 193.356297 195.080216 195.25279 
L 197.989593 201.370952 
Q 198.891434 203.267445 200.787926 202.365603 
z
" clip-path="url(#p367c4ef480)" style="fill: #ffffff; stroke: #ffffff; stroke-linejoin: miter"/>
    </g>
    <g clip-path="url(#p367c4ef480)">
     <!-- CFG -->
     <g transform="translate(199.260903 199.154408) rotate(-25.432544) scale(0.07 -0.07)">
      <use xlink:href="#DejaVuSans-43"/>
      <use xlink:href="#DejaVuSans-46" transform="translate(69.824219 0)"/>
      <use xlink:href="#DejaVuSans-47" transform="translate(127.34375 0)"/>
     </g>
    </g>
   </g>
   <g id="text_7">
    <g id="patch_16">
     <path d="M 143.79744 195.819591 
L 153.224691 206.622567 
Q 154.605446 208.204817 156.187696 206.824062 
L 161.2921 202.369688 
Q 162.87435 200.988933 161.493595 199.406683 
L 152.066345 188.603706 
Q 150.685589 187.021456 149.103339 188.402211 
L 143.998935 192.856585 
Q 142.416685 194.237341 143.79744 195.819591 
z
" clip-path="url(#p367c4ef480)" style="fill: #ffffff; stroke: #ffffff; stroke-linejoin: miter"/>
    </g>
    <g clip-path="url(#p367c4ef480)">
     <!-- CFG -->
     <g transform="translate(146.476552 193.481656) rotate(-311.109676) scale(0.07 -0.07)">
      <use xlink:href="#DejaVuSans-43"/>
      <use xlink:href="#DejaVuSans-46" transform="translate(69.824219 0)"/>
      <use xlink:href="#DejaVuSans-47" transform="translate(127.34375 0)"/>
     </g>
    </g>
   </g>
   <g id="text_8">
    <g id="patch_17">
     <path d="M 116.267053 241.717869 
L 122.594724 228.851714 
Q 123.521502 226.967282 121.63707 226.040505 
L 115.557815 223.050681 
Q 113.673383 222.123904 112.746605 224.008336 
L 106.418934 236.87449 
Q 105.492157 238.758922 107.376588 239.685699 
L 113.455844 242.675523 
Q 115.340276 243.6023 116.267053 241.717869 
z
" clip-path="url(#p367c4ef480)" style="fill: #ffffff; stroke: #ffffff; stroke-linejoin: miter"/>
    </g>
    <g clip-path="url(#p367c4ef480)">
     <!-- CFG -->
     <g transform="translate(113.076278 240.148622) rotate(-63.811695) scale(0.07 -0.07)">
      <use xlink:href="#DejaVuSans-43"/>
      <use xlink:href="#DejaVuSans-46" transform="translate(69.824219 0)"/>
      <use xlink:href="#DejaVuSans-47" transform="translate(127.34375 0)"/>
     </g>
    </g>
   </g>
   <g id="PathCollection_1">
    <defs>
     <path id="C0_0_5c026f77f1" d="M 0 19.364917 
C 5.135636 19.364917 10.061621 17.324507 13.693064 13.693064 
C 17.324507 10.061621 19.364917 5.135636 19.364917 -0 
C 19.364917 -5.135636 17.324507 -10.061621 13.693064 -13.693064 
C 10.061621 -17.324507 5.135636 -19.364917 0 -19.364917 
C -5.135636 -19.364917 -10.061621 -17.324507 -13.693064 -13.693064 
C -17.324507 -10.061621 -19.364917 -5.135636 -19.364917 0 
C -19.364917 5.135636 -17.324507 10.061621 -13.693064 13.693064 
C -10.061621 17.324507 -5.135636 19.364917 0 19.364917 
z
"/>
    </defs>
    <g clip-path="url(#p367c4ef480)">
     <use xlink:href="#C0_0_5c026f77f1" x="875.127273" y="95.736529" style="fill: #8dd3c7; stroke: #333333; stroke-width: 0.8"/>
    </g>
    <g clip-path="url(#p367c4ef480)">
     <use xlink:href="#C0_0_5c026f77f1" x="794.74802" y="48.494166" style="fill: #ccebc5; stroke: #333333; stroke-width: 0.8"/>
    </g>
    <g clip-path="url(#p367c4ef480)">
     <use xlink:href="#C0_0_5c026f77f1" x="633.901462" y="33.441322" style="fill: #ccebc5; stroke: #333333; stroke-width: 0.8"/>
    </g>
    <g clip-path="url(#p367c4ef480)">
     <use xlink:href="#C0_0_5c026f77f1" x="483.493539" y="46.400082" style="fill: #ccebc5; stroke: #333333; stroke-width: 0.8"/>
    </g>
    <g clip-path="url(#p367c4ef480)">
     <use xlink:href="#C0_0_5c026f77f1" x="356.277402" y="101.934377" style="fill: #ccebc5; stroke: #333333; stroke-width: 0.8"/>
    </g>
    <g clip-path="url(#p367c4ef480)">
     <use xlink:href="#C0_0_5c026f77f1" x="243.867455" y="175.803768" style="fill: #ccebc5; stroke: #333333; stroke-width: 0.8"/>
    </g>
    <g clip-path="url(#p367c4ef480)">
     <use xlink:href="#C0_0_5c026f77f1" x="165.948022" y="212.856887" style="fill: #ccebc5; stroke: #333333; stroke-width: 0.8"/>
    </g>
    <g clip-path="url(#p367c4ef480)">
     <use xlink:href="#C0_0_5c026f77f1" x="139.341097" y="182.367191" style="fill: #ccebc5; stroke: #333333; stroke-width: 0.8"/>
    </g>
    <g clip-path="url(#p367c4ef480)">
     <use xlink:href="#C0_0_5c026f77f1" x="89.672727" y="283.358678" style="fill: #fb8072; stroke: #333333; stroke-width: 0.8"/>
    </g>
   </g>
   <g id="text_9">
    <g clip-path="url(#p367c4ef480)">
     <!-- ROOT: } p=0.50 -->
     <g transform="translate(842.814773 97.944029) scale(0.08 -0.08)">
      <defs>
       <path id="DejaVuSans-52" d="M 2841 2188 
Q 3044 2119 3236 1894 
Q 3428 1669 3622 1275 
L 4263 0 
L 3584 0 
L 2988 1197 
Q 2756 1666 2539 1819 
Q 2322 1972 1947 1972 
L 1259 1972 
L 1259 0 
L 628 0 
L 628 4666 
L 2053 4666 
Q 2853 4666 3247 4331 
Q 3641 3997 3641 3322 
Q 3641 2881 3436 2590 
Q 3231 2300 2841 2188 
z
M 1259 4147 
L 1259 2491 
L 2053 2491 
Q 2509 2491 2742 2702 
Q 2975 2913 2975 3322 
Q 2975 3731 2742 3939 
Q 2509 4147 2053 4147 
L 1259 4147 
z
" transform="scale(0.015625)"/>
       <path id="DejaVuSans-4f" d="M 2522 4238 
Q 1834 4238 1429 3725 
Q 1025 3213 1025 2328 
Q 1025 1447 1429 934 
Q 1834 422 2522 422 
Q 3209 422 3611 934 
Q 4013 1447 4013 2328 
Q 4013 3213 3611 3725 
Q 3209 4238 2522 4238 
z
M 2522 4750 
Q 3503 4750 4090 4092 
Q 4678 3434 4678 2328 
Q 4678 1225 4090 567 
Q 3503 -91 2522 -91 
Q 1538 -91 948 565 
Q 359 1222 359 2328 
Q 359 3434 948 4092 
Q 1538 4750 2522 4750 
z
" transform="scale(0.015625)"/>
       <path id="DejaVuSans-54" d="M -19 4666 
L 3928 4666 
L 3928 4134 
L 2272 4134 
L 2272 0 
L 1638 0 
L 1638 4134 
L -19 4134 
L -19 4666 
z
" transform="scale(0.015625)"/>
       <path id="DejaVuSans-3a" d="M 750 794 
L 1409 794 
L 1409 0 
L 750 0 
L 750 794 
z
M 750 3309 
L 1409 3309 
L 1409 2516 
L 750 2516 
L 750 3309 
z
" transform="scale(0.015625)"/>
       <path id="DejaVuSans-20" transform="scale(0.015625)"/>
       <path id="DejaVuSans-7d" d="M 800 -594 
L 1019 -594 
Q 1456 -594 1589 -459 
Q 1722 -325 1722 122 
L 1722 897 
Q 1722 1384 1862 1606 
Q 2003 1828 2350 1913 
Q 2003 1991 1862 2212 
Q 1722 2434 1722 2925 
L 1722 3700 
Q 1722 4144 1589 4280 
Q 1456 4416 1019 4416 
L 800 4416 
L 800 4863 
L 997 4863 
Q 1775 4863 2036 4633 
Q 2297 4403 2297 3713 
L 2297 2963 
Q 2297 2497 2465 2317 
Q 2634 2138 3078 2138 
L 3272 2138 
L 3272 1691 
L 3078 1691 
Q 2634 1691 2465 1509 
Q 2297 1328 2297 856 
L 2297 109 
Q 2297 -581 2036 -812 
Q 1775 -1044 997 -1044 
L 800 -1044 
L 800 -594 
z
" transform="scale(0.015625)"/>
       <path id="DejaVuSans-70" d="M 1159 525 
L 1159 -1331 
L 581 -1331 
L 581 3500 
L 1159 3500 
L 1159 2969 
Q 1341 3281 1617 3432 
Q 1894 3584 2278 3584 
Q 2916 3584 3314 3078 
Q 3713 2572 3713 1747 
Q 3713 922 3314 415 
Q 2916 -91 2278 -91 
Q 1894 -91 1617 61 
Q 1341 213 1159 525 
z
M 3116 1747 
Q 3116 2381 2855 2742 
Q 2594 3103 2138 3103 
Q 1681 3103 1420 2742 
Q 1159 2381 1159 1747 
Q 1159 1113 1420 752 
Q 1681 391 2138 391 
Q 2594 391 2855 752 
Q 3116 1113 3116 1747 
z
" transform="scale(0.015625)"/>
       <path id="DejaVuSans-3d" d="M 678 2906 
L 4684 2906 
L 4684 2381 
L 678 2381 
L 678 2906 
z
M 678 1631 
L 4684 1631 
L 4684 1100 
L 678 1100 
L 678 1631 
z
" transform="scale(0.015625)"/>
       <path id="DejaVuSans-30" d="M 2034 4250 
Q 1547 4250 1301 3770 
Q 1056 3291 1056 2328 
Q 1056 1369 1301 889 
Q 1547 409 2034 409 
Q 2525 409 2770 889 
Q 3016 1369 3016 2328 
Q 3016 3291 2770 3770 
Q 2525 4250 2034 4250 
z
M 2034 4750 
Q 2819 4750 3233 4129 
Q 3647 3509 3647 2328 
Q 3647 1150 3233 529 
Q 2819 -91 2034 -91 
Q 1250 -91 836 529 
Q 422 1150 422 2328 
Q 422 3509 836 4129 
Q 1250 4750 2034 4750 
z
" transform="scale(0.015625)"/>
       <path id="DejaVuSans-2e" d="M 684 794 
L 1344 794 
L 1344 0 
L 684 0 
L 684 794 
z
" transform="scale(0.015625)"/>
       <path id="DejaVuSans-35" d="M 691 4666 
L 3169 4666 
L 3169 4134 
L 1269 4134 
L 1269 2991 
Q 1406 3038 1543 3061 
Q 1681 3084 1819 3084 
Q 2600 3084 3056 2656 
Q 3513 2228 3513 1497 
Q 3513 744 3044 326 
Q 2575 -91 1722 -91 
Q 1428 -91 1123 -41 
Q 819 9 494 109 
L 494 744 
Q 775 591 1075 516 
Q 1375 441 1709 441 
Q 2250 441 2565 725 
Q 2881 1009 2881 1497 
Q 2881 1984 2565 2268 
Q 2250 2553 1709 2553 
Q 1456 2553 1204 2497 
Q 953 2441 691 2322 
L 691 4666 
z
" transform="scale(0.015625)"/>
      </defs>
      <use xlink:href="#DejaVuSans-52"/>
      <use xlink:href="#DejaVuSans-4f" transform="translate(69.482422 0)"/>
      <use xlink:href="#DejaVuSans-4f" transform="translate(148.193359 0)"/>
      <use xlink:href="#DejaVuSans-54" transform="translate(226.904297 0)"/>
      <use xlink:href="#DejaVuSans-3a" transform="translate(276.988281 0)"/>
      <use xlink:href="#DejaVuSans-20" transform="translate(310.679688 0)"/>
      <use xlink:href="#DejaVuSans-7d" transform="translate(342.466797 0)"/>
      <use xlink:href="#DejaVuSans-20" transform="translate(406.089844 0)"/>
      <use xlink:href="#DejaVuSans-70" transform="translate(437.876953 0)"/>
      <use xlink:href="#DejaVuSans-3d" transform="translate(501.353516 0)"/>
      <use xlink:href="#DejaVuSans-30" transform="translate(585.142578 0)"/>
      <use xlink:href="#DejaVuSans-2e" transform="translate(648.765625 0)"/>
      <use xlink:href="#DejaVuSans-35" transform="translate(680.552734 0)"/>
      <use xlink:href="#DejaVuSans-30" transform="translate(744.175781 0)"/>
     </g>
    </g>
   </g>
   <g id="text_10">
    <g clip-path="url(#p367c4ef480)">
     <!-- 1: return 0; p=0.51 -->
     <g transform="translate(756.123645 50.701666) scale(0.08 -0.08)">
      <defs>
       <path id="DejaVuSans-31" d="M 794 531 
L 1825 531 
L 1825 4091 
L 703 3866 
L 703 4441 
L 1819 4666 
L 2450 4666 
L 2450 531 
L 3481 531 
L 3481 0 
L 794 0 
L 794 531 
z
" transform="scale(0.015625)"/>
       <path id="DejaVuSans-72" d="M 2631 2963 
Q 2534 3019 2420 3045 
Q 2306 3072 2169 3072 
Q 1681 3072 1420 2755 
Q 1159 2438 1159 1844 
L 1159 0 
L 581 0 
L 581 3500 
L 1159 3500 
L 1159 2956 
Q 1341 3275 1631 3429 
Q 1922 3584 2338 3584 
Q 2397 3584 2469 3576 
Q 2541 3569 2628 3553 
L 2631 2963 
z
" transform="scale(0.015625)"/>
       <path id="DejaVuSans-65" d="M 3597 1894 
L 3597 1613 
L 953 1613 
Q 991 1019 1311 708 
Q 1631 397 2203 397 
Q 2534 397 2845 478 
Q 3156 559 3463 722 
L 3463 178 
Q 3153 47 2828 -22 
Q 2503 -91 2169 -91 
Q 1331 -91 842 396 
Q 353 884 353 1716 
Q 353 2575 817 3079 
Q 1281 3584 2069 3584 
Q 2775 3584 3186 3129 
Q 3597 2675 3597 1894 
z
M 3022 2063 
Q 3016 2534 2758 2815 
Q 2500 3097 2075 3097 
Q 1594 3097 1305 2825 
Q 1016 2553 972 2059 
L 3022 2063 
z
" transform="scale(0.015625)"/>
       <path id="DejaVuSans-74" d="M 1172 4494 
L 1172 3500 
L 2356 3500 
L 2356 3053 
L 1172 3053 
L 1172 1153 
Q 1172 725 1289 603 
Q 1406 481 1766 481 
L 2356 481 
L 2356 0 
L 1766 0 
Q 1100 0 847 248 
Q 594 497 594 1153 
L 594 3053 
L 172 3053 
L 172 3500 
L 594 3500 
L 594 4494 
L 1172 4494 
z
" transform="scale(0.015625)"/>
       <path id="DejaVuSans-75" d="M 544 1381 
L 544 3500 
L 1119 3500 
L 1119 1403 
Q 1119 906 1312 657 
Q 1506 409 1894 409 
Q 2359 409 2629 706 
Q 2900 1003 2900 1516 
L 2900 3500 
L 3475 3500 
L 3475 0 
L 2900 0 
L 2900 538 
Q 2691 219 2414 64 
Q 2138 -91 1772 -91 
Q 1169 -91 856 284 
Q 544 659 544 1381 
z
M 1991 3584 
L 1991 3584 
z
" transform="scale(0.015625)"/>
       <path id="DejaVuSans-6e" d="M 3513 2113 
L 3513 0 
L 2938 0 
L 2938 2094 
Q 2938 2591 2744 2837 
Q 2550 3084 2163 3084 
Q 1697 3084 1428 2787 
Q 1159 2491 1159 1978 
L 1159 0 
L 581 0 
L 581 3500 
L 1159 3500 
L 1159 2956 
Q 1366 3272 1645 3428 
Q 1925 3584 2291 3584 
Q 2894 3584 3203 3211 
Q 3513 2838 3513 2113 
z
" transform="scale(0.015625)"/>
       <path id="DejaVuSans-3b" d="M 750 3309 
L 1409 3309 
L 1409 2516 
L 750 2516 
L 750 3309 
z
M 750 794 
L 1409 794 
L 1409 256 
L 897 -744 
L 494 -744 
L 750 256 
L 750 794 
z
" transform="scale(0.015625)"/>
      </defs>
      <use xlink:href="#DejaVuSans-31"/>
      <use xlink:href="#DejaVuSans-3a" transform="translate(63.623047 0)"/>
      <use xlink:href="#DejaVuSans-20" transform="translate(97.314453 0)"/>
      <use xlink:href="#DejaVuSans-72" transform="translate(129.101562 0)"/>
      <use xlink:href="#DejaVuSans-65" transform="translate(167.964844 0)"/>
      <use xlink:href="#DejaVuSans-74" transform="translate(229.488281 0)"/>
      <use xlink:href="#DejaVuSans-75" transform="translate(268.697266 0)"/>
      <use xlink:href="#DejaVuSans-72" transform="translate(332.076172 0)"/>
      <use xlink:href="#DejaVuSans-6e" transform="translate(371.439453 0)"/>
      <use xlink:href="#DejaVuSans-20" transform="translate(434.818359 0)"/>
      <use xlink:href="#DejaVuSans-30" transform="translate(466.605469 0)"/>
      <use xlink:href="#DejaVuSans-3b" transform="translate(530.228516 0)"/>
      <use xlink:href="#DejaVuSans-20" transform="translate(563.919922 0)"/>
      <use xlink:href="#DejaVuSans-70" transform="translate(595.707031 0)"/>
      <use xlink:href="#DejaVuSans-3d" transform="translate(659.183594 0)"/>
      <use xlink:href="#DejaVuSans-30" transform="translate(742.972656 0)"/>
      <use xlink:href="#DejaVuSans-2e" transform="translate(806.595703 0)"/>
      <use xlink:href="#DejaVuSans-35" transform="translate(838.382812 0)"/>
      <use xlink:href="#DejaVuSans-31" transform="translate(902.005859 0)"/>
     </g>
    </g>
   </g>
   <g id="text_11">
    <g clip-path="url(#p367c4ef480)">
     <!-- 2: } p=0.49 -->
     <g transform="translate(610.123962 35.648822) scale(0.08 -0.08)">
      <defs>
       <path id="DejaVuSans-32" d="M 1228 531 
L 3431 531 
L 3431 0 
L 469 0 
L 469 531 
Q 828 903 1448 1529 
Q 2069 2156 2228 2338 
Q 2531 2678 2651 2914 
Q 2772 3150 2772 3378 
Q 2772 3750 2511 3984 
Q 2250 4219 1831 4219 
Q 1534 4219 1204 4116 
Q 875 4013 500 3803 
L 500 4441 
Q 881 4594 1212 4672 
Q 1544 4750 1819 4750 
Q 2544 4750 2975 4387 
Q 3406 4025 3406 3419 
Q 3406 3131 3298 2873 
Q 3191 2616 2906 2266 
Q 2828 2175 2409 1742 
Q 1991 1309 1228 531 
z
" transform="scale(0.015625)"/>
       <path id="DejaVuSans-34" d="M 2419 4116 
L 825 1625 
L 2419 1625 
L 2419 4116 
z
M 2253 4666 
L 3047 4666 
L 3047 1625 
L 3713 1625 
L 3713 1100 
L 3047 1100 
L 3047 0 
L 2419 0 
L 2419 1100 
L 313 1100 
L 313 1709 
L 2253 4666 
z
" transform="scale(0.015625)"/>
       <path id="DejaVuSans-39" d="M 703 97 
L 703 672 
Q 941 559 1184 500 
Q 1428 441 1663 441 
Q 2288 441 2617 861 
Q 2947 1281 2994 2138 
Q 2813 1869 2534 1725 
Q 2256 1581 1919 1581 
Q 1219 1581 811 2004 
Q 403 2428 403 3163 
Q 403 3881 828 4315 
Q 1253 4750 1959 4750 
Q 2769 4750 3195 4129 
Q 3622 3509 3622 2328 
Q 3622 1225 3098 567 
Q 2575 -91 1691 -91 
Q 1453 -91 1209 -44 
Q 966 3 703 97 
z
M 1959 2075 
Q 2384 2075 2632 2365 
Q 2881 2656 2881 3163 
Q 2881 3666 2632 3958 
Q 2384 4250 1959 4250 
Q 1534 4250 1286 3958 
Q 1038 3666 1038 3163 
Q 1038 2656 1286 2365 
Q 1534 2075 1959 2075 
z
" transform="scale(0.015625)"/>
      </defs>
      <use xlink:href="#DejaVuSans-32"/>
      <use xlink:href="#DejaVuSans-3a" transform="translate(63.623047 0)"/>
      <use xlink:href="#DejaVuSans-20" transform="translate(97.314453 0)"/>
      <use xlink:href="#DejaVuSans-7d" transform="translate(129.101562 0)"/>
      <use xlink:href="#DejaVuSans-20" transform="translate(192.724609 0)"/>
      <use xlink:href="#DejaVuSans-70" transform="translate(224.511719 0)"/>
      <use xlink:href="#DejaVuSans-3d" transform="translate(287.988281 0)"/>
      <use xlink:href="#DejaVuSans-30" transform="translate(371.777344 0)"/>
      <use xlink:href="#DejaVuSans-2e" transform="translate(435.400391 0)"/>
      <use xlink:href="#DejaVuSans-34" transform="translate(467.1875 0)"/>
      <use xlink:href="#DejaVuSans-39" transform="translate(530.810547 0)"/>
     </g>
    </g>
   </g>
   <g id="text_12">
    <g clip-path="url(#p367c4ef480)">
     <!-- 3: do_exec(p); p=0.53 -->
     <g transform="translate(438.971664 48.496332) scale(0.08 -0.08)">
      <defs>
       <path id="DejaVuSans-33" d="M 2597 2516 
Q 3050 2419 3304 2112 
Q 3559 1806 3559 1356 
Q 3559 666 3084 287 
Q 2609 -91 1734 -91 
Q 1441 -91 1130 -33 
Q 819 25 488 141 
L 488 750 
Q 750 597 1062 519 
Q 1375 441 1716 441 
Q 2309 441 2620 675 
Q 2931 909 2931 1356 
Q 2931 1769 2642 2001 
Q 2353 2234 1838 2234 
L 1294 2234 
L 1294 2753 
L 1863 2753 
Q 2328 2753 2575 2939 
Q 2822 3125 2822 3475 
Q 2822 3834 2567 4026 
Q 2313 4219 1838 4219 
Q 1578 4219 1281 4162 
Q 984 4106 628 3988 
L 628 4550 
Q 988 4650 1302 4700 
Q 1616 4750 1894 4750 
Q 2613 4750 3031 4423 
Q 3450 4097 3450 3541 
Q 3450 3153 3228 2886 
Q 3006 2619 2597 2516 
z
" transform="scale(0.015625)"/>
       <path id="DejaVuSans-64" d="M 2906 2969 
L 2906 4863 
L 3481 4863 
L 3481 0 
L 2906 0 
L 2906 525 
Q 2725 213 2448 61 
Q 2172 -91 1784 -91 
Q 1150 -91 751 415 
Q 353 922 353 1747 
Q 353 2572 751 3078 
Q 1150 3584 1784 3584 
Q 2172 3584 2448 3432 
Q 2725 3281 2906 2969 
z
M 947 1747 
Q 947 1113 1208 752 
Q 1469 391 1925 391 
Q 2381 391 2643 752 
Q 2906 1113 2906 1747 
Q 2906 2381 2643 2742 
Q 2381 3103 1925 3103 
Q 1469 3103 1208 2742 
Q 947 2381 947 1747 
z
" transform="scale(0.015625)"/>
       <path id="DejaVuSans-6f" d="M 1959 3097 
Q 1497 3097 1228 2736 
Q 959 2375 959 1747 
Q 959 1119 1226 758 
Q 1494 397 1959 397 
Q 2419 397 2687 759 
Q 2956 1122 2956 1747 
Q 2956 2369 2687 2733 
Q 2419 3097 1959 3097 
z
M 1959 3584 
Q 2709 3584 3137 3096 
Q 3566 2609 3566 1747 
Q 3566 888 3137 398 
Q 2709 -91 1959 -91 
Q 1206 -91 779 398 
Q 353 888 353 1747 
Q 353 2609 779 3096 
Q 1206 3584 1959 3584 
z
" transform="scale(0.015625)"/>
       <path id="DejaVuSans-5f" d="M 3263 -1063 
L 3263 -1509 
L -63 -1509 
L -63 -1063 
L 3263 -1063 
z
" transform="scale(0.015625)"/>
       <path id="DejaVuSans-78" d="M 3513 3500 
L 2247 1797 
L 3578 0 
L 2900 0 
L 1881 1375 
L 863 0 
L 184 0 
L 1544 1831 
L 300 3500 
L 978 3500 
L 1906 2253 
L 2834 3500 
L 3513 3500 
z
" transform="scale(0.015625)"/>
       <path id="DejaVuSans-63" d="M 3122 3366 
L 3122 2828 
Q 2878 2963 2633 3030 
Q 2388 3097 2138 3097 
Q 1578 3097 1268 2742 
Q 959 2388 959 1747 
Q 959 1106 1268 751 
Q 1578 397 2138 397 
Q 2388 397 2633 464 
Q 2878 531 3122 666 
L 3122 134 
Q 2881 22 2623 -34 
Q 2366 -91 2075 -91 
Q 1284 -91 818 406 
Q 353 903 353 1747 
Q 353 2603 823 3093 
Q 1294 3584 2113 3584 
Q 2378 3584 2631 3529 
Q 2884 3475 3122 3366 
z
" transform="scale(0.015625)"/>
       <path id="DejaVuSans-28" d="M 1984 4856 
Q 1566 4138 1362 3434 
Q 1159 2731 1159 2009 
Q 1159 1288 1364 580 
Q 1569 -128 1984 -844 
L 1484 -844 
Q 1016 -109 783 600 
Q 550 1309 550 2009 
Q 550 2706 781 3412 
Q 1013 4119 1484 4856 
L 1984 4856 
z
" transform="scale(0.015625)"/>
       <path id="DejaVuSans-29" d="M 513 4856 
L 1013 4856 
Q 1481 4119 1714 3412 
Q 1947 2706 1947 2009 
Q 1947 1309 1714 600 
Q 1481 -109 1013 -844 
L 513 -844 
Q 928 -128 1133 580 
Q 1338 1288 1338 2009 
Q 1338 2731 1133 3434 
Q 928 4138 513 4856 
z
" transform="scale(0.015625)"/>
      </defs>
      <use xlink:href="#DejaVuSans-33"/>
      <use xlink:href="#DejaVuSans-3a" transform="translate(63.623047 0)"/>
      <use xlink:href="#DejaVuSans-20" transform="translate(97.314453 0)"/>
      <use xlink:href="#DejaVuSans-64" transform="translate(129.101562 0)"/>
      <use xlink:href="#DejaVuSans-6f" transform="translate(192.578125 0)"/>
      <use xlink:href="#DejaVuSans-5f" transform="translate(253.759766 0)"/>
      <use xlink:href="#DejaVuSans-65" transform="translate(303.759766 0)"/>
      <use xlink:href="#DejaVuSans-78" transform="translate(363.533203 0)"/>
      <use xlink:href="#DejaVuSans-65" transform="translate(419.587891 0)"/>
      <use xlink:href="#DejaVuSans-63" transform="translate(481.111328 0)"/>
      <use xlink:href="#DejaVuSans-28" transform="translate(536.091797 0)"/>
      <use xlink:href="#DejaVuSans-70" transform="translate(575.105469 0)"/>
      <use xlink:href="#DejaVuSans-29" transform="translate(638.582031 0)"/>
      <use xlink:href="#DejaVuSans-3b" transform="translate(677.595703 0)"/>
      <use xlink:href="#DejaVuSans-20" transform="translate(711.287109 0)"/>
      <use xlink:href="#DejaVuSans-70" transform="translate(743.074219 0)"/>
      <use xlink:href="#DejaVuSans-3d" transform="translate(806.550781 0)"/>
      <use xlink:href="#DejaVuSans-30" transform="translate(890.339844 0)"/>
      <use xlink:href="#DejaVuSans-2e" transform="translate(953.962891 0)"/>
      <use xlink:href="#DejaVuSans-35" transform="translate(985.75 0)"/>
      <use xlink:href="#DejaVuSans-33" transform="translate(1049.373047 0)"/>
     </g>
    </g>
   </g>
   <g id="text_13">
    <g clip-path="url(#p367c4ef480)">
     <!-- 4: char* p = argv[1]; p=0.56 -->
     <g transform="translate(298.563652 104.141877) scale(0.08 -0.08)">
      <defs>
       <path id="DejaVuSans-68" d="M 3513 2113 
L 3513 0 
L 2938 0 
L 2938 2094 
Q 2938 2591 2744 2837 
Q 2550 3084 2163 3084 
Q 1697 3084 1428 2787 
Q 1159 2491 1159 1978 
L 1159 0 
L 581 0 
L 581 4863 
L 1159 4863 
L 1159 2956 
Q 1366 3272 1645 3428 
Q 1925 3584 2291 3584 
Q 2894 3584 3203 3211 
Q 3513 2838 3513 2113 
z
" transform="scale(0.015625)"/>
       <path id="DejaVuSans-61" d="M 2194 1759 
Q 1497 1759 1228 1600 
Q 959 1441 959 1056 
Q 959 750 1161 570 
Q 1363 391 1709 391 
Q 2188 391 2477 730 
Q 2766 1069 2766 1631 
L 2766 1759 
L 2194 1759 
z
M 3341 1997 
L 3341 0 
L 2766 0 
L 2766 531 
Q 2569 213 2275 61 
Q 1981 -91 1556 -91 
Q 1019 -91 701 211 
Q 384 513 384 1019 
Q 384 1609 779 1909 
Q 1175 2209 1959 2209 
L 2766 2209 
L 2766 2266 
Q 2766 2663 2505 2880 
Q 2244 3097 1772 3097 
Q 1472 3097 1187 3025 
Q 903 2953 641 2809 
L 641 3341 
Q 956 3463 1253 3523 
Q 1550 3584 1831 3584 
Q 2591 3584 2966 3190 
Q 3341 2797 3341 1997 
z
" transform="scale(0.015625)"/>
       <path id="DejaVuSans-2a" d="M 3009 3897 
L 1888 3291 
L 3009 2681 
L 2828 2375 
L 1778 3009 
L 1778 1831 
L 1422 1831 
L 1422 3009 
L 372 2375 
L 191 2681 
L 1313 3291 
L 191 3897 
L 372 4206 
L 1422 3572 
L 1422 4750 
L 1778 4750 
L 1778 3572 
L 2828 4206 
L 3009 3897 
z
" transform="scale(0.015625)"/>
       <path id="DejaVuSans-67" d="M 2906 1791 
Q 2906 2416 2648 2759 
Q 2391 3103 1925 3103 
Q 1463 3103 1205 2759 
Q 947 2416 947 1791 
Q 947 1169 1205 825 
Q 1463 481 1925 481 
Q 2391 481 2648 825 
Q 2906 1169 2906 1791 
z
M 3481 434 
Q 3481 -459 3084 -895 
Q 2688 -1331 1869 -1331 
Q 1566 -1331 1297 -1286 
Q 1028 -1241 775 -1147 
L 775 -588 
Q 1028 -725 1275 -790 
Q 1522 -856 1778 -856 
Q 2344 -856 2625 -561 
Q 2906 -266 2906 331 
L 2906 616 
Q 2728 306 2450 153 
Q 2172 0 1784 0 
Q 1141 0 747 490 
Q 353 981 353 1791 
Q 353 2603 747 3093 
Q 1141 3584 1784 3584 
Q 2172 3584 2450 3431 
Q 2728 3278 2906 2969 
L 2906 3500 
L 3481 3500 
L 3481 434 
z
" transform="scale(0.015625)"/>
       <path id="DejaVuSans-76" d="M 191 3500 
L 800 3500 
L 1894 563 
L 2988 3500 
L 3597 3500 
L 2284 0 
L 1503 0 
L 191 3500 
z
" transform="scale(0.015625)"/>
       <path id="DejaVuSans-5b" d="M 550 4863 
L 1875 4863 
L 1875 4416 
L 1125 4416 
L 1125 -397 
L 1875 -397 
L 1875 -844 
L 550 -844 
L 550 4863 
z
" transform="scale(0.015625)"/>
       <path id="DejaVuSans-5d" d="M 1947 4863 
L 1947 -844 
L 622 -844 
L 622 -397 
L 1369 -397 
L 1369 4416 
L 622 4416 
L 622 4863 
L 1947 4863 
z
" transform="scale(0.015625)"/>
       <path id="DejaVuSans-36" d="M 2113 2584 
Q 1688 2584 1439 2293 
Q 1191 2003 1191 1497 
Q 1191 994 1439 701 
Q 1688 409 2113 409 
Q 2538 409 2786 701 
Q 3034 994 3034 1497 
Q 3034 2003 2786 2293 
Q 2538 2584 2113 2584 
z
M 3366 4563 
L 3366 3988 
Q 3128 4100 2886 4159 
Q 2644 4219 2406 4219 
Q 1781 4219 1451 3797 
Q 1122 3375 1075 2522 
Q 1259 2794 1537 2939 
Q 1816 3084 2150 3084 
Q 2853 3084 3261 2657 
Q 3669 2231 3669 1497 
Q 3669 778 3244 343 
Q 2819 -91 2113 -91 
Q 1303 -91 875 529 
Q 447 1150 447 2328 
Q 447 3434 972 4092 
Q 1497 4750 2381 4750 
Q 2619 4750 2861 4703 
Q 3103 4656 3366 4563 
z
" transform="scale(0.015625)"/>
      </defs>
      <use xlink:href="#DejaVuSans-34"/>
      <use xlink:href="#DejaVuSans-3a" transform="translate(63.623047 0)"/>
      <use xlink:href="#DejaVuSans-20" transform="translate(97.314453 0)"/>
      <use xlink:href="#DejaVuSans-63" transform="translate(129.101562 0)"/>
      <use xlink:href="#DejaVuSans-68" transform="translate(184.082031 0)"/>
      <use xlink:href="#DejaVuSans-61" transform="translate(247.460938 0)"/>
      <use xlink:href="#DejaVuSans-72" transform="translate(308.740234 0)"/>
      <use xlink:href="#DejaVuSans-2a" transform="translate(349.853516 0)"/>
      <use xlink:href="#DejaVuSans-20" transform="translate(399.853516 0)"/>
      <use xlink:href="#DejaVuSans-70" transform="translate(431.640625 0)"/>
      <use xlink:href="#DejaVuSans-20" transform="translate(495.117188 0)"/>
      <use xlink:href="#DejaVuSans-3d" transform="translate(526.904297 0)"/>
      <use xlink:href="#DejaVuSans-20" transform="translate(610.693359 0)"/>
      <use xlink:href="#DejaVuSans-61" transform="translate(642.480469 0)"/>
      <use xlink:href="#DejaVuSans-72" transform="translate(703.759766 0)"/>
      <use xlink:href="#DejaVuSans-67" transform="translate(743.123047 0)"/>
      <use xlink:href="#DejaVuSans-76" transform="translate(806.599609 0)"/>
      <use xlink:href="#DejaVuSans-5b" transform="translate(865.779297 0)"/>
      <use xlink:href="#DejaVuSans-31" transform="translate(904.792969 0)"/>
      <use xlink:href="#DejaVuSans-5d" transform="translate(968.416016 0)"/>
      <use xlink:href="#DejaVuSans-3b" transform="translate(1007.429688 0)"/>
      <use xlink:href="#DejaVuSans-20" transform="translate(1041.121094 0)"/>
      <use xlink:href="#DejaVuSans-70" transform="translate(1072.908203 0)"/>
      <use xlink:href="#DejaVuSans-3d" transform="translate(1136.384766 0)"/>
      <use xlink:href="#DejaVuSans-30" transform="translate(1220.173828 0)"/>
      <use xlink:href="#DejaVuSans-2e" transform="translate(1283.796875 0)"/>
      <use xlink:href="#DejaVuSans-35" transform="translate(1315.583984 0)"/>
      <use xlink:href="#DejaVuSans-36" transform="translate(1379.207031 0)"/>
     </g>
    </g>
   </g>
   <g id="text_14">
    <g clip-path="url(#p367c4ef480)">
     <!-- 5: if (argc &gt; 1) { p=0.43 -->
     <g transform="translate(194.70308 178.011268) scale(0.08 -0.08)">
      <defs>
       <path id="DejaVuSans-69" d="M 603 3500 
L 1178 3500 
L 1178 0 
L 603 0 
L 603 3500 
z
M 603 4863 
L 1178 4863 
L 1178 4134 
L 603 4134 
L 603 4863 
z
" transform="scale(0.015625)"/>
       <path id="DejaVuSans-66" d="M 2375 4863 
L 2375 4384 
L 1825 4384 
Q 1516 4384 1395 4259 
Q 1275 4134 1275 3809 
L 1275 3500 
L 2222 3500 
L 2222 3053 
L 1275 3053 
L 1275 0 
L 697 0 
L 697 3053 
L 147 3053 
L 147 3500 
L 697 3500 
L 697 3744 
Q 697 4328 969 4595 
Q 1241 4863 1831 4863 
L 2375 4863 
z
" transform="scale(0.015625)"/>
       <path id="DejaVuSans-3e" d="M 678 3150 
L 678 3719 
L 4684 2266 
L 4684 1747 
L 678 294 
L 678 863 
L 3897 2003 
L 678 3150 
z
" transform="scale(0.015625)"/>
       <path id="DejaVuSans-7b" d="M 3272 -594 
L 3272 -1044 
L 3078 -1044 
Q 2300 -1044 2036 -812 
Q 1772 -581 1772 109 
L 1772 856 
Q 1772 1328 1603 1509 
Q 1434 1691 991 1691 
L 800 1691 
L 800 2138 
L 991 2138 
Q 1438 2138 1605 2317 
Q 1772 2497 1772 2963 
L 1772 3713 
Q 1772 4403 2036 4633 
Q 2300 4863 3078 4863 
L 3272 4863 
L 3272 4416 
L 3059 4416 
Q 2619 4416 2484 4278 
Q 2350 4141 2350 3700 
L 2350 2925 
Q 2350 2434 2208 2212 
Q 2066 1991 1722 1913 
Q 2069 1828 2209 1606 
Q 2350 1384 2350 897 
L 2350 122 
Q 2350 -319 2484 -456 
Q 2619 -594 3059 -594 
L 3272 -594 
z
" transform="scale(0.015625)"/>
      </defs>
      <use xlink:href="#DejaVuSans-35"/>
      <use xlink:href="#DejaVuSans-3a" transform="translate(63.623047 0)"/>
      <use xlink:href="#DejaVuSans-20" transform="translate(97.314453 0)"/>
      <use xlink:href="#DejaVuSans-69" transform="translate(129.101562 0)"/>
      <use xlink:href="#DejaVuSans-66" transform="translate(156.884766 0)"/>
      <use xlink:href="#DejaVuSans-20" transform="translate(192.089844 0)"/>
      <use xlink:href="#DejaVuSans-28" transform="translate(223.876953 0)"/>
      <use xlink:href="#DejaVuSans-61" transform="translate(262.890625 0)"/>
      <use xlink:href="#DejaVuSans-72" transform="translate(324.169922 0)"/>
      <use xlink:href="#DejaVuSans-67" transform="translate(363.533203 0)"/>
      <use xlink:href="#DejaVuSans-63" transform="translate(427.009766 0)"/>
      <use xlink:href="#DejaVuSans-20" transform="translate(481.990234 0)"/>
      <use xlink:href="#DejaVuSans-3e" transform="translate(513.777344 0)"/>
      <use xlink:href="#DejaVuSans-20" transform="translate(597.566406 0)"/>
      <use xlink:href="#DejaVuSans-31" transform="translate(629.353516 0)"/>
      <use xlink:href="#DejaVuSans-29" transform="translate(692.976562 0)"/>
      <use xlink:href="#DejaVuSans-20" transform="translate(731.990234 0)"/>
      <use xlink:href="#DejaVuSans-7b" transform="translate(763.777344 0)"/>
      <use xlink:href="#DejaVuSans-20" transform="translate(827.400391 0)"/>
      <use xlink:href="#DejaVuSans-70" transform="translate(859.1875 0)"/>
      <use xlink:href="#DejaVuSans-3d" transform="translate(922.664062 0)"/>
      <use xlink:href="#DejaVuSans-30" transform="translate(1006.453125 0)"/>
      <use xlink:href="#DejaVuSans-2e" transform="translate(1070.076172 0)"/>
      <use xlink:href="#DejaVuSans-34" transform="translate(1101.863281 0)"/>
      <use xlink:href="#DejaVuSans-33" transform="translate(1165.486328 0)"/>
     </g>
    </g>
   </g>
   <g id="text_15">
    <g clip-path="url(#p367c4ef480)">
     <!-- 6: int main(int argc, char** argv) { p=0.45 -->
     <g transform="translate(80.472397 215.064387) scale(0.08 -0.08)">
      <defs>
       <path id="DejaVuSans-6d" d="M 3328 2828 
Q 3544 3216 3844 3400 
Q 4144 3584 4550 3584 
Q 5097 3584 5394 3201 
Q 5691 2819 5691 2113 
L 5691 0 
L 5113 0 
L 5113 2094 
Q 5113 2597 4934 2840 
Q 4756 3084 4391 3084 
Q 3944 3084 3684 2787 
Q 3425 2491 3425 1978 
L 3425 0 
L 2847 0 
L 2847 2094 
Q 2847 2600 2669 2842 
Q 2491 3084 2119 3084 
Q 1678 3084 1418 2786 
Q 1159 2488 1159 1978 
L 1159 0 
L 581 0 
L 581 3500 
L 1159 3500 
L 1159 2956 
Q 1356 3278 1631 3431 
Q 1906 3584 2284 3584 
Q 2666 3584 2933 3390 
Q 3200 3197 3328 2828 
z
" transform="scale(0.015625)"/>
       <path id="DejaVuSans-2c" d="M 750 794 
L 1409 794 
L 1409 256 
L 897 -744 
L 494 -744 
L 750 256 
L 750 794 
z
" transform="scale(0.015625)"/>
      </defs>
      <use xlink:href="#DejaVuSans-36"/>
      <use xlink:href="#DejaVuSans-3a" transform="translate(63.623047 0)"/>
      <use xlink:href="#DejaVuSans-20" transform="translate(97.314453 0)"/>
      <use xlink:href="#DejaVuSans-69" transform="translate(129.101562 0)"/>
      <use xlink:href="#DejaVuSans-6e" transform="translate(156.884766 0)"/>
      <use xlink:href="#DejaVuSans-74" transform="translate(220.263672 0)"/>
      <use xlink:href="#DejaVuSans-20" transform="translate(259.472656 0)"/>
      <use xlink:href="#DejaVuSans-6d" transform="translate(291.259766 0)"/>
      <use xlink:href="#DejaVuSans-61" transform="translate(388.671875 0)"/>
      <use xlink:href="#DejaVuSans-69" transform="translate(449.951172 0)"/>
      <use xlink:href="#DejaVuSans-6e" transform="translate(477.734375 0)"/>
      <use xlink:href="#DejaVuSans-28" transform="translate(541.113281 0)"/>
      <use xlink:href="#DejaVuSans-69" transform="translate(580.126953 0)"/>
      <use xlink:href="#DejaVuSans-6e" transform="translate(607.910156 0)"/>
      <use xlink:href="#DejaVuSans-74" transform="translate(671.289062 0)"/>
      <use xlink:href="#DejaVuSans-20" transform="translate(710.498047 0)"/>
      <use xlink:href="#DejaVuSans-61" transform="translate(742.285156 0)"/>
      <use xlink:href="#DejaVuSans-72" transform="translate(803.564453 0)"/>
      <use xlink:href="#DejaVuSans-67" transform="translate(842.927734 0)"/>
      <use xlink:href="#DejaVuSans-63" transform="translate(906.404297 0)"/>
      <use xlink:href="#DejaVuSans-2c" transform="translate(961.384766 0)"/>
      <use xlink:href="#DejaVuSans-20" transform="translate(993.171875 0)"/>
      <use xlink:href="#DejaVuSans-63" transform="translate(1024.958984 0)"/>
      <use xlink:href="#DejaVuSans-68" transform="translate(1079.939453 0)"/>
      <use xlink:href="#DejaVuSans-61" transform="translate(1143.318359 0)"/>
      <use xlink:href="#DejaVuSans-72" transform="translate(1204.597656 0)"/>
      <use xlink:href="#DejaVuSans-2a" transform="translate(1245.710938 0)"/>
      <use xlink:href="#DejaVuSans-2a" transform="translate(1295.710938 0)"/>
      <use xlink:href="#DejaVuSans-20" transform="translate(1345.710938 0)"/>
      <use xlink:href="#DejaVuSans-61" transform="translate(1377.498047 0)"/>
      <use xlink:href="#DejaVuSans-72" transform="translate(1438.777344 0)"/>
      <use xlink:href="#DejaVuSans-67" transform="translate(1478.140625 0)"/>
      <use xlink:href="#DejaVuSans-76" transform="translate(1541.617188 0)"/>
      <use xlink:href="#DejaVuSans-29" transform="translate(1600.796875 0)"/>
      <use xlink:href="#DejaVuSans-20" transform="translate(1639.810547 0)"/>
      <use xlink:href="#DejaVuSans-7b" transform="translate(1671.597656 0)"/>
      <use xlink:href="#DejaVuSans-20" transform="translate(1735.220703 0)"/>
      <use xlink:href="#DejaVuSans-70" transform="translate(1767.007812 0)"/>
      <use xlink:href="#DejaVuSans-3d" transform="translate(1830.484375 0)"/>
      <use xlink:href="#DejaVuSans-30" transform="translate(1914.273438 0)"/>
      <use xlink:href="#DejaVuSans-2e" transform="translate(1977.896484 0)"/>
      <use xlink:href="#DejaVuSans-34" transform="translate(2009.683594 0)"/>
      <use xlink:href="#DejaVuSans-35" transform="translate(2073.306641 0)"/>
     </g>
    </g>
   </g>
   <g id="text_16">
    <g clip-path="url(#p367c4ef480)">
     <!-- 7: extern void do_exec(char* cmd); p=0.48 -->
     <g transform="translate(52.716722 184.463441) scale(0.08 -0.08)">
      <defs>
       <path id="DejaVuSans-37" d="M 525 4666 
L 3525 4666 
L 3525 4397 
L 1831 0 
L 1172 0 
L 2766 4134 
L 525 4134 
L 525 4666 
z
" transform="scale(0.015625)"/>
       <path id="DejaVuSans-38" d="M 2034 2216 
Q 1584 2216 1326 1975 
Q 1069 1734 1069 1313 
Q 1069 891 1326 650 
Q 1584 409 2034 409 
Q 2484 409 2743 651 
Q 3003 894 3003 1313 
Q 3003 1734 2745 1975 
Q 2488 2216 2034 2216 
z
M 1403 2484 
Q 997 2584 770 2862 
Q 544 3141 544 3541 
Q 544 4100 942 4425 
Q 1341 4750 2034 4750 
Q 2731 4750 3128 4425 
Q 3525 4100 3525 3541 
Q 3525 3141 3298 2862 
Q 3072 2584 2669 2484 
Q 3125 2378 3379 2068 
Q 3634 1759 3634 1313 
Q 3634 634 3220 271 
Q 2806 -91 2034 -91 
Q 1263 -91 848 271 
Q 434 634 434 1313 
Q 434 1759 690 2068 
Q 947 2378 1403 2484 
z
M 1172 3481 
Q 1172 3119 1398 2916 
Q 1625 2713 2034 2713 
Q 2441 2713 2670 2916 
Q 2900 3119 2900 3481 
Q 2900 3844 2670 4047 
Q 2441 4250 2034 4250 
Q 1625 4250 1398 4047 
Q 1172 3844 1172 3481 
z
" transform="scale(0.015625)"/>
      </defs>
      <use xlink:href="#DejaVuSans-37"/>
      <use xlink:href="#DejaVuSans-3a" transform="translate(63.623047 0)"/>
      <use xlink:href="#DejaVuSans-20" transform="translate(97.314453 0)"/>
      <use xlink:href="#DejaVuSans-65" transform="translate(129.101562 0)"/>
      <use xlink:href="#DejaVuSans-78" transform="translate(188.875 0)"/>
      <use xlink:href="#DejaVuSans-74" transform="translate(248.054688 0)"/>
      <use xlink:href="#DejaVuSans-65" transform="translate(287.263672 0)"/>
      <use xlink:href="#DejaVuSans-72" transform="translate(348.787109 0)"/>
      <use xlink:href="#DejaVuSans-6e" transform="translate(388.150391 0)"/>
      <use xlink:href="#DejaVuSans-20" transform="translate(451.529297 0)"/>
      <use xlink:href="#DejaVuSans-76" transform="translate(483.316406 0)"/>
      <use xlink:href="#DejaVuSans-6f" transform="translate(542.496094 0)"/>
      <use xlink:href="#DejaVuSans-69" transform="translate(603.677734 0)"/>
      <use xlink:href="#DejaVuSans-64" transform="translate(631.460938 0)"/>
      <use xlink:href="#DejaVuSans-20" transform="translate(694.9375 0)"/>
      <use xlink:href="#DejaVuSans-64" transform="translate(726.724609 0)"/>
      <use xlink:href="#DejaVuSans-6f" transform="translate(790.201172 0)"/>
      <use xlink:href="#DejaVuSans-5f" transform="translate(851.382812 0)"/>
      <use xlink:href="#DejaVuSans-65" transform="translate(901.382812 0)"/>
      <use xlink:href="#DejaVuSans-78" transform="translate(961.15625 0)"/>
      <use xlink:href="#DejaVuSans-65" transform="translate(1017.210938 0)"/>
      <use xlink:href="#DejaVuSans-63" transform="translate(1078.734375 0)"/>
      <use xlink:href="#DejaVuSans-28" transform="translate(1133.714844 0)"/>
      <use xlink:href="#DejaVuSans-63" transform="translate(1172.728516 0)"/>
      <use xlink:href="#DejaVuSans-68" transform="translate(1227.708984 0)"/>
      <use xlink:href="#DejaVuSans-61" transform="translate(1291.087891 0)"/>
      <use xlink:href="#DejaVuSans-72" transform="translate(1352.367188 0)"/>
      <use xlink:href="#DejaVuSans-2a" transform="translate(1393.480469 0)"/>
      <use xlink:href="#DejaVuSans-20" transform="translate(1443.480469 0)"/>
      <use xlink:href="#DejaVuSans-63" transform="translate(1475.267578 0)"/>
      <use xlink:href="#DejaVuSans-6d" transform="translate(1530.248047 0)"/>
      <use xlink:href="#DejaVuSans-64" transform="translate(1627.660156 0)"/>
      <use xlink:href="#DejaVuSans-29" transform="translate(1691.136719 0)"/>
      <use xlink:href="#DejaVuSans-3b" transform="translate(1730.150391 0)"/>
      <use xlink:href="#DejaVuSans-20" transform="translate(1763.841797 0)"/>
      <use xlink:href="#DejaVuSans-70" transform="translate(1795.628906 0)"/>
      <use xlink:href="#DejaVuSans-3d" transform="translate(1859.105469 0)"/>
      <use xlink:href="#DejaVuSans-30" transform="translate(1942.894531 0)"/>
      <use xlink:href="#DejaVuSans-2e" transform="translate(2006.517578 0)"/>
      <use xlink:href="#DejaVuSans-34" transform="translate(2038.304688 0)"/>
      <use xlink:href="#DejaVuSans-38" transform="translate(2101.927734 0)"/>
     </g>
    </g>
   </g>
   <g id="text_17">
    <g clip-path="url(#p367c4ef480)">
     <!-- SINK: #include &lt;stdlib.h&gt; p=0.51 -->
     <g transform="translate(21.071477 285.566178) scale(0.08 -0.08)">
      <defs>
       <path id="DejaVuSans-53" d="M 3425 4513 
L 3425 3897 
Q 3066 4069 2747 4153 
Q 2428 4238 2131 4238 
Q 1616 4238 1336 4038 
Q 1056 3838 1056 3469 
Q 1056 3159 1242 3001 
Q 1428 2844 1947 2747 
L 2328 2669 
Q 3034 2534 3370 2195 
Q 3706 1856 3706 1288 
Q 3706 609 3251 259 
Q 2797 -91 1919 -91 
Q 1588 -91 1214 -16 
Q 841 59 441 206 
L 441 856 
Q 825 641 1194 531 
Q 1563 422 1919 422 
Q 2459 422 2753 634 
Q 3047 847 3047 1241 
Q 3047 1584 2836 1778 
Q 2625 1972 2144 2069 
L 1759 2144 
Q 1053 2284 737 2584 
Q 422 2884 422 3419 
Q 422 4038 858 4394 
Q 1294 4750 2059 4750 
Q 2388 4750 2728 4690 
Q 3069 4631 3425 4513 
z
" transform="scale(0.015625)"/>
       <path id="DejaVuSans-49" d="M 628 4666 
L 1259 4666 
L 1259 0 
L 628 0 
L 628 4666 
z
" transform="scale(0.015625)"/>
       <path id="DejaVuSans-4e" d="M 628 4666 
L 1478 4666 
L 3547 763 
L 3547 4666 
L 4159 4666 
L 4159 0 
L 3309 0 
L 1241 3903 
L 1241 0 
L 628 0 
L 628 4666 
z
" transform="scale(0.015625)"/>
       <path id="DejaVuSans-4b" d="M 628 4666 
L 1259 4666 
L 1259 2694 
L 3353 4666 
L 4166 4666 
L 1850 2491 
L 4331 0 
L 3500 0 
L 1259 2247 
L 1259 0 
L 628 0 
L 628 4666 
z
" transform="scale(0.015625)"/>
       <path id="DejaVuSans-23" d="M 3272 2816 
L 2363 2816 
L 2100 1772 
L 3016 1772 
L 3272 2816 
z
M 2803 4594 
L 2478 3297 
L 3391 3297 
L 3719 4594 
L 4219 4594 
L 3897 3297 
L 4872 3297 
L 4872 2816 
L 3775 2816 
L 3519 1772 
L 4513 1772 
L 4513 1294 
L 3397 1294 
L 3072 0 
L 2572 0 
L 2894 1294 
L 1978 1294 
L 1656 0 
L 1153 0 
L 1478 1294 
L 494 1294 
L 494 1772 
L 1594 1772 
L 1856 2816 
L 850 2816 
L 850 3297 
L 1978 3297 
L 2297 4594 
L 2803 4594 
z
" transform="scale(0.015625)"/>
       <path id="DejaVuSans-6c" d="M 603 4863 
L 1178 4863 
L 1178 0 
L 603 0 
L 603 4863 
z
" transform="scale(0.015625)"/>
       <path id="DejaVuSans-3c" d="M 4684 3150 
L 1459 2003 
L 4684 863 
L 4684 294 
L 678 1747 
L 678 2266 
L 4684 3719 
L 4684 3150 
z
" transform="scale(0.015625)"/>
       <path id="DejaVuSans-73" d="M 2834 3397 
L 2834 2853 
Q 2591 2978 2328 3040 
Q 2066 3103 1784 3103 
Q 1356 3103 1142 2972 
Q 928 2841 928 2578 
Q 928 2378 1081 2264 
Q 1234 2150 1697 2047 
L 1894 2003 
Q 2506 1872 2764 1633 
Q 3022 1394 3022 966 
Q 3022 478 2636 193 
Q 2250 -91 1575 -91 
Q 1294 -91 989 -36 
Q 684 19 347 128 
L 347 722 
Q 666 556 975 473 
Q 1284 391 1588 391 
Q 1994 391 2212 530 
Q 2431 669 2431 922 
Q 2431 1156 2273 1281 
Q 2116 1406 1581 1522 
L 1381 1569 
Q 847 1681 609 1914 
Q 372 2147 372 2553 
Q 372 3047 722 3315 
Q 1072 3584 1716 3584 
Q 2034 3584 2315 3537 
Q 2597 3491 2834 3397 
z
" transform="scale(0.015625)"/>
       <path id="DejaVuSans-62" d="M 3116 1747 
Q 3116 2381 2855 2742 
Q 2594 3103 2138 3103 
Q 1681 3103 1420 2742 
Q 1159 2381 1159 1747 
Q 1159 1113 1420 752 
Q 1681 391 2138 391 
Q 2594 391 2855 752 
Q 3116 1113 3116 1747 
z
M 1159 2969 
Q 1341 3281 1617 3432 
Q 1894 3584 2278 3584 
Q 2916 3584 3314 3078 
Q 3713 2572 3713 1747 
Q 3713 922 3314 415 
Q 2916 -91 2278 -91 
Q 1894 -91 1617 61 
Q 1341 213 1159 525 
L 1159 0 
L 581 0 
L 581 4863 
L 1159 4863 
L 1159 2969 
z
" transform="scale(0.015625)"/>
      </defs>
      <use xlink:href="#DejaVuSans-53"/>
      <use xlink:href="#DejaVuSans-49" transform="translate(63.476562 0)"/>
      <use xlink:href="#DejaVuSans-4e" transform="translate(92.96875 0)"/>
      <use xlink:href="#DejaVuSans-4b" transform="translate(167.773438 0)"/>
      <use xlink:href="#DejaVuSans-3a" transform="translate(233.349609 0)"/>
      <use xlink:href="#DejaVuSans-20" transform="translate(267.041016 0)"/>
      <use xlink:href="#DejaVuSans-23" transform="translate(298.828125 0)"/>
      <use xlink:href="#DejaVuSans-69" transform="translate(382.617188 0)"/>
      <use xlink:href="#DejaVuSans-6e" transform="translate(410.400391 0)"/>
      <use xlink:href="#DejaVuSans-63" transform="translate(473.779297 0)"/>
      <use xlink:href="#DejaVuSans-6c" transform="translate(528.759766 0)"/>
      <use xlink:href="#DejaVuSans-75" transform="translate(556.542969 0)"/>
      <use xlink:href="#DejaVuSans-64" transform="translate(619.921875 0)"/>
      <use xlink:href="#DejaVuSans-65" transform="translate(683.398438 0)"/>
      <use xlink:href="#DejaVuSans-20" transform="translate(744.921875 0)"/>
      <use xlink:href="#DejaVuSans-3c" transform="translate(776.708984 0)"/>
      <use xlink:href="#DejaVuSans-73" transform="translate(860.498047 0)"/>
      <use xlink:href="#DejaVuSans-74" transform="translate(912.597656 0)"/>
      <use xlink:href="#DejaVuSans-64" transform="translate(951.806641 0)"/>
      <use xlink:href="#DejaVuSans-6c" transform="translate(1015.283203 0)"/>
      <use xlink:href="#DejaVuSans-69" transform="translate(1043.066406 0)"/>
      <use xlink:href="#DejaVuSans-62" transform="translate(1070.849609 0)"/>
      <use xlink:href="#DejaVuSans-2e" transform="translate(1134.326172 0)"/>
      <use xlink:href="#DejaVuSans-68" transform="translate(1166.113281 0)"/>
      <use xlink:href="#DejaVuSans-3e" transform="translate(1229.492188 0)"/>
      <use xlink:href="#DejaVuSans-20" transform="translate(1313.28125 0)"/>
      <use xlink:href="#DejaVuSans-70" transform="translate(1345.068359 0)"/>
      <use xlink:href="#DejaVuSans-3d" transform="translate(1408.544922 0)"/>
      <use xlink:href="#DejaVuSans-30" transform="translate(1492.333984 0)"/>
      <use xlink:href="#DejaVuSans-2e" transform="translate(1555.957031 0)"/>
      <use xlink:href="#DejaVuSans-35" transform="translate(1587.744141 0)"/>
      <use xlink:href="#DejaVuSans-31" transform="translate(1651.367188 0)"/>
     </g>
    </g>
   </g>
  </g>
 </g>
 <defs>
  <clipPath id="p367c4ef480">
   <rect x="7.2" y="7.2" width="950.4" height="302.4"/>
  </clipPath>
 </defs>
</svg>
